<?xml version="1.0" encoding="UTF-8" standalone="no"?>
<!-- Created with Inkscape (http://www.inkscape.org/) -->

<svg
   xmlns:dc="http://purl.org/dc/elements/1.1/"
   xmlns:cc="http://creativecommons.org/ns#"
   xmlns:rdf="http://www.w3.org/1999/02/22-rdf-syntax-ns#"
   xmlns:svg="http://www.w3.org/2000/svg"
   xmlns="http://www.w3.org/2000/svg"
   xmlns:sodipodi="http://sodipodi.sourceforge.net/DTD/sodipodi-0.dtd"
   xmlns:inkscape="http://www.inkscape.org/namespaces/inkscape"
   id="svg5028"
   version="1.1"
   inkscape:version="0.91 r13725"
   xml:space="preserve"
   width="966.25"
   height="320"
   viewBox="0 0 966.25 320"
   sodipodi:docname="logosympa3.svg"><metadata
     id="metadata5034"><rdf:RDF><cc:Work
         rdf:about=""><dc:format>image/svg+xml</dc:format><dc:type
           rdf:resource="http://purl.org/dc/dcmitype/StillImage" /><dc:title></dc:title></cc:Work></rdf:RDF></metadata><defs
     id="defs5032"><clipPath
       clipPathUnits="userSpaceOnUse"
       id="clipPath5044"><path
         d="M 0,0 773,0 773,256 0,256 0,0 Z"
         id="path5046"
         inkscape:connector-curvature="0" /></clipPath><clipPath
       clipPathUnits="userSpaceOnUse"
       id="clipPath5056"><path
         d="M 312,175 367.8068,130 422,175 312,175 Z"
         id="path5058"
         inkscape:connector-curvature="0"
         style="clip-rule:evenodd" /></clipPath><clipPath
       clipPathUnits="userSpaceOnUse"
       id="clipPath5062"><path
         d="M 0,0 773,0 773,256 0,256 0,0 Z"
         id="path5064"
         inkscape:connector-curvature="0" /></clipPath><clipPath
       clipPathUnits="userSpaceOnUse"
       id="clipPath5072"><path
         d="M 0,0 773,0 773,256 0,256 0,0 Z"
         id="path5074"
         inkscape:connector-curvature="0" /></clipPath></defs><sodipodi:namedview
     pagecolor="#ffffff"
     bordercolor="#666666"
     borderopacity="1"
     objecttolerance="10"
     gridtolerance="10"
     guidetolerance="10"
     inkscape:pageopacity="0"
     inkscape:pageshadow="2"
     inkscape:window-width="1362"
     inkscape:window-height="723"
     id="namedview5030"
     showgrid="false"
     showguides="false"
     inkscape:zoom="0.62349804"
     inkscape:cx="402.30706"
     inkscape:cy="179.14896"
     inkscape:window-x="4"
     inkscape:window-y="1"
     inkscape:window-maximized="1"
     inkscape:current-layer="g5070" /><g
     id="g5036"
     inkscape:groupmode="layer"
     inkscape:label="logosympa"
     transform="matrix(1.25,0,0,-1.25,0,320)"><g
       id="g5038" /><g
       id="g5040"
       transform="matrix(0.93129071,0,0,1.0032667,2.2244899,-0.43751793)"><g
         id="g5042"
         clip-path="url(#clipPath5044)"><g
           id="g5048"
           transform="matrix(-1,0,0,1,422.0419,85)"><path
             d="m 0.04188758,0 0,85.0332 c 0,0 -0.35465988,2.7719 1.00000042,3.9668 1.354659,1.1949 4.630859,1 4.630859,1 L 104.414,90 c 0,0 3.1459,0.34901 4.6279,-1 1.4819,-1.34901 1,-4.12305 1,-4.12305 L 110.0419,0"
             style="fill:none;stroke:#969696;stroke-width:20;stroke-linecap:butt;stroke-linejoin:miter;stroke-miterlimit:10;stroke-dasharray:none;stroke-opacity:1"
             id="path5050"
             inkscape:connector-curvature="0" /></g></g></g><g
       id="g5052"
       transform="matrix(0.93129071,0,0,1.0032667,2.2244899,-0.43751793)"><g
         id="g5054"
         clip-path="url(#clipPath5056)"><g
           id="g5060"
           clip-path="url(#clipPath5062)"><path
             d="m 307,125 120,0 0,55 -120,0 0,-55 z"
             style="fill:#979797;fill-opacity:1;fill-rule:nonzero;stroke:none"
             id="path5066"
             inkscape:connector-curvature="0" /></g></g></g><g
       id="g5068"><g
         id="g5070"
         clip-path="url(#clipPath5072)"><g
           id="g5076"
           transform="matrix(-0.93129071,0,0,1.0032667,655.91784,88.147794)"><path
             d="m 0,0 67.23176,77.02131 c 0,0 2.1966,3.78053 4.95965,3.68182 2.76304,-0.09872 5.67434,-4.06172 5.67434,-4.06172 L 149.6094,0"
             style="fill:none;stroke:#979797;stroke-width:20;stroke-linecap:butt;stroke-linejoin:miter;stroke-miterlimit:10;stroke-dasharray:none;stroke-opacity:1"
             id="path5078"
             inkscape:connector-curvature="0" /></g><g
           id="g5080"
           transform="matrix(0.93129071,0,0,-1.0032667,423.8591,175.975)"><path
             d="m 0,43.50608 c 0,0 43.71484,0 69.53125,0 41.15625,0 40.66195,-11.44766 41.15625,-22.05469 0.4943,-10.60704 0,-21.2500011 -41.15625,-21.2500011 -28.30078,-0.453125 -69.53125,0 -69.53125,0 L 0,43.50608 Z"
             style="fill:none;stroke:#979797;stroke-width:20;stroke-linecap:butt;stroke-linejoin:miter;stroke-miterlimit:10;stroke-dasharray:none;stroke-opacity:1"
             id="path5082"
             inkscape:connector-curvature="0" /></g><g
           id="g5084"
           transform="matrix(0.93129071,0,0,-1.0032667,422.08014,175.31053)"><path
             d="M 1.40625,0 1,89.67969"
             style="fill:none;stroke:#979797;stroke-width:20;stroke-linecap:butt;stroke-linejoin:miter;stroke-miterlimit:10;stroke-dasharray:none;stroke-opacity:1"
             id="path5086"
             inkscape:connector-curvature="0" /></g><g
           id="g5088"
           transform="matrix(0.93129071,0,0,-1.0032667,164.73109,177.10146)"><path
             style="color:#000000;font-style:normal;font-variant:normal;font-weight:normal;font-stretch:normal;font-size:medium;line-height:normal;font-family:sans-serif;text-indent:0;text-align:start;text-decoration:none;text-decoration-line:none;text-decoration-style:solid;text-decoration-color:#000000;letter-spacing:normal;word-spacing:normal;text-transform:none;direction:ltr;block-progression:tb;writing-mode:lr-tb;baseline-shift:baseline;text-anchor:start;white-space:normal;clip-rule:nonzero;display:inline;overflow:visible;visibility:visible;opacity:1;isolation:auto;mix-blend-mode:normal;color-interpolation:sRGB;color-interpolation-filters:linearRGB;solid-color:#000000;solid-opacity:1;fill:#979797;fill-opacity:1;fill-rule:nonzero;stroke:none;stroke-width:20;stroke-linecap:butt;stroke-linejoin:miter;stroke-miterlimit:10;stroke-dasharray:none;stroke-dashoffset:0;stroke-opacity:1;color-rendering:auto;image-rendering:auto;shape-rendering:auto;text-rendering:auto;enable-background:accumulate"
             d="M 347.25391,89.041016 286.37305,137.76953 243.85144,105.62836 225.65625,91.875 l -15.07227,19.94141 56.47461,42.6914 C 241.147,176.6647 212.72504,201.355 188.72169,222.83234 l 37.86228,-0.34018 0.0215,-0.0195 79.83594,-68.6211 -0.0625,-0.0723 56.49414,-45.22266 z"
             id="path5090"
             transform="matrix(0.8,0,0,0.8,-174.4961,-79.0391)"
             inkscape:connector-curvature="0"
             sodipodi:nodetypes="ccccccccccccc" /></g><g
           id="g5092"
           transform="matrix(1,0,0,-1,174.75,140.502)" /><g
           id="g5096"
           transform="matrix(0.93129071,0,0,-1.0032667,37.206097,176.04733)"><path
             d="M 105.2318,0 29.80273,0 C 29.80273,0 0,0 0,22.875 0,45.75 29.80273,40.50195 29.80273,40.50195 c 0,0 35.754072,-0.268685 46.801299,-0.453639 11.047227,-0.184954 28.094291,6.145102 27.720491,23.907327 -0.37379,17.762225 -26.813215,21.88081 -26.813215,21.88081 L 0,85.38281"
             style="fill:none;stroke:#979797;stroke-width:20;stroke-linecap:butt;stroke-linejoin:miter;stroke-miterlimit:10;stroke-dasharray:none;stroke-opacity:1"
             id="path5098"
             inkscape:connector-curvature="0"
             sodipodi:nodetypes="ccsczzcc" /></g><g
           id="g5100"
           transform="matrix(0.93129071,0,0,-1.0032667,152.74435,228.11577)"><path
             d="M 0,24.13722 C 0,24.13722 31.61768,0.1272628 65.4375,5.054725e-4 99.25732,-0.1262518 135.4883,23.62941 135.4883,23.62941"
             style="fill:none;stroke:#979797;stroke-width:20;stroke-linecap:butt;stroke-linejoin:miter;stroke-miterlimit:10;stroke-dasharray:none;stroke-opacity:1"
             id="path5102"
             inkscape:connector-curvature="0" /></g><g
           id="g5104"
           transform="matrix(0.93129071,0,0,-1.0032667,411.9924,229.31106)"><path
             d="M 0,24.13722 C 0,24.13722 31.61768,0.1272628 65.4375,5.054725e-4 99.25732,-0.1262518 135.4883,23.62941 135.4883,23.62941"
             style="fill:none;stroke:#979797;stroke-width:20;stroke-linecap:butt;stroke-linejoin:miter;stroke-miterlimit:10;stroke-dasharray:none;stroke-opacity:1"
             id="path5106"
             inkscape:connector-curvature="0" /></g><g
           id="g5108"
           transform="matrix(-0.93129071,0,0,1.0032667,406.85941,38.552216)"><path
             d="M 0,24.13722 C 0,24.13722 31.61768,0.1272628 65.4375,5.054725e-4 99.25732,-0.1262518 135.4883,23.62941 135.4883,23.62941"
             style="fill:none;stroke:#979797;stroke-width:20;stroke-linecap:butt;stroke-linejoin:miter;stroke-miterlimit:10;stroke-dasharray:none;stroke-opacity:1"
             id="path5110"
             inkscape:connector-curvature="0" /></g></g></g></g></svg>